<?xml version="1.0" standalone="no"?>
<!DOCTYPE svg PUBLIC "-//W3C//DTD SVG 20010904//EN"
 "http://www.w3.org/TR/2001/REC-SVG-20010904/DTD/svg10.dtd">
<svg version="1.0" xmlns="http://www.w3.org/2000/svg"
 width="2000.000000pt" height="2000.000000pt" viewBox="0 0 2000.000000 2000.000000"
 preserveAspectRatio="xMidYMid meet">

<g transform="translate(0.000000,2000.000000) scale(0.100000,-0.100000)"
fill="#000000" stroke="none">
<path d="M0 10000 l0 -10000 10000 0 10000 0 0 10000 0 10000 -10000 0 -10000
0 0 -10000z m6826 6795 c218 -6 304 -17 407 -50 43 -14 90 -25 105 -25 65 0
96 -18 128 -72 34 -59 45 -86 69 -173 9 -33 38 -100 64 -150 58 -111 72 -162
69 -245 -1 -36 1 -129 6 -207 6 -121 5 -151 -9 -195 -27 -83 -104 -228 -154
-289 -25 -31 -73 -93 -105 -138 -33 -45 -88 -106 -123 -137 -34 -31 -63 -61
-63 -67 0 -15 -70 -77 -87 -77 -7 0 -16 -6 -20 -12 -4 -7 -30 -29 -58 -48 -27
-19 -58 -42 -67 -50 -10 -9 -38 -26 -62 -38 -24 -12 -49 -29 -56 -37 -7 -8
-17 -15 -22 -15 -5 0 -42 -16 -83 -35 -41 -19 -86 -37 -100 -41 -14 -3 -28
-10 -31 -15 -3 -5 -18 -9 -33 -9 -15 0 -31 -4 -36 -9 -6 -5 -50 -14 -100 -20
-49 -5 -109 -16 -132 -25 -22 -8 -94 -17 -160 -21 -72 -4 -145 -15 -188 -28
-103 -31 -181 -35 -370 -21 -182 14 -245 24 -316 48 -24 9 -57 16 -74 16 -16
0 -39 6 -51 13 -88 51 -129 69 -142 60 -10 -6 -37 2 -85 25 -38 18 -77 31 -86
29 -9 -2 -37 11 -64 30 -26 18 -53 33 -60 33 -29 0 -136 56 -137 72 0 9 -4 20
-10 23 -5 3 -10 17 -10 30 0 14 -10 48 -23 77 -13 29 -31 80 -41 113 -10 33
-22 69 -27 80 -18 48 -52 205 -56 261 -9 117 35 195 124 222 78 23 128 10 241
-62 69 -44 80 -37 124 84 45 120 187 433 226 499 48 78 162 168 253 200 18 6
40 17 48 25 17 14 69 42 141 76 25 11 68 34 95 50 72 42 92 50 130 50 20 0 44
9 62 24 15 12 47 26 71 29 24 3 61 17 82 32 27 19 47 25 63 21 14 -3 60 9 125
34 57 22 115 40 130 40 16 0 37 7 48 15 15 13 40 15 134 10 63 -3 196 -8 296
-10z m-1146 -179 c0 -2 -7 -7 -16 -10 -8 -3 -12 -2 -9 4 6 10 25 14 25 6z
m2740 -1701 c78 -28 98 -35 175 -54 128 -31 218 -68 400 -166 39 -21 88 -47
110 -59 100 -52 176 -130 264 -274 42 -69 179 -262 214 -303 8 -9 17 -31 20
-50 9 -45 70 -237 118 -374 21 -60 45 -135 53 -165 8 -30 21 -81 31 -113 18
-61 15 -70 -21 -81 -17 -5 -23 -2 -27 16 -27 111 -62 227 -86 288 -17 40 -38
103 -47 139 -9 36 -21 75 -27 86 -6 11 -20 57 -32 101 -20 76 -77 179 -132
239 -25 28 -73 93 -73 99 0 3 -17 32 -38 65 -103 159 -180 234 -303 296 -52
26 -99 51 -104 56 -34 27 -188 93 -235 100 -137 21 -161 26 -173 41 -13 16
-95 50 -167 68 -24 7 -71 9 -105 6 -33 -3 -279 -7 -546 -8 l-487 -3 1 -100 c0
-55 -5 -143 -12 -195 -6 -52 -15 -207 -20 -345 -10 -267 -24 -446 -44 -587
-11 -72 -11 -88 0 -88 9 0 13 -15 13 -45 0 -25 9 -71 20 -103 11 -31 23 -81
27 -109 3 -29 10 -53 14 -53 5 0 9 -11 9 -25 0 -13 8 -39 18 -57 11 -18 22
-51 26 -73 10 -52 39 -139 49 -143 4 -2 7 -14 7 -27 0 -12 7 -36 15 -51 8 -16
18 -45 21 -64 4 -19 12 -42 19 -50 7 -8 15 -37 19 -64 3 -28 10 -52 15 -55 4
-4 11 -26 15 -51 4 -25 13 -58 21 -73 13 -26 13 -28 -10 -39 -38 -17 -52 -4
-60 54 -4 29 -10 55 -14 58 -6 5 -23 57 -53 165 -6 22 -14 42 -17 45 -7 6 -37
100 -46 142 -3 15 -11 33 -18 40 -8 7 -16 33 -20 57 -3 24 -10 47 -15 50 -5 3
-13 26 -17 51 -4 25 -10 50 -14 55 -4 6 -13 40 -20 77 -16 84 -33 134 -55 159
-9 11 -16 30 -16 42 0 16 -35 58 -117 138 -65 64 -134 126 -153 139 -19 13
-37 27 -40 30 -3 3 -17 11 -32 19 -15 8 -36 22 -45 30 -10 9 -61 46 -113 81
-52 36 -97 68 -100 71 -10 12 -123 89 -132 89 -4 0 -30 15 -56 33 -26 18 -74
48 -107 66 -105 59 -119 67 -171 99 -28 18 -70 41 -95 52 -55 26 -132 71 -139
80 -3 4 -22 12 -42 18 -32 9 -50 6 -124 -19 -47 -16 -90 -29 -96 -29 -15 0
-151 -61 -168 -75 -8 -7 -34 -19 -57 -26 -24 -7 -43 -18 -43 -25 0 -9 -94 -54
-114 -54 -2 0 -32 -19 -66 -42 -34 -24 -75 -52 -92 -62 -17 -11 -42 -30 -56
-43 -14 -13 -31 -23 -38 -23 -8 0 -14 -4 -14 -10 0 -5 -7 -10 -15 -10 -23 0
-97 -39 -120 -64 -11 -12 -38 -34 -59 -51 -131 -100 -244 -196 -335 -284 -58
-55 -106 -99 -109 -97 -4 4 45 83 65 104 7 7 20 28 28 46 19 40 72 97 150 162
33 27 73 61 90 76 16 16 34 28 39 28 5 0 25 17 43 37 37 40 51 49 131 87 28
14 52 29 52 34 0 5 14 15 30 22 17 7 30 16 30 21 0 5 25 21 55 35 30 15 55 33
55 39 0 7 14 18 30 24 17 6 44 16 60 22 17 6 30 18 30 25 0 8 7 14 16 14 9 0
37 11 63 24 61 31 128 62 169 76 17 7 32 16 32 20 0 4 23 13 51 20 28 7 75 25
105 41 29 16 63 29 74 29 11 0 20 4 20 8 0 5 89 9 198 8 l197 0 109 37 c60 20
119 37 131 37 12 0 45 7 74 15 28 9 117 25 196 35 136 18 188 33 226 67 9 8
50 30 90 49 40 19 93 50 118 68 25 19 64 43 86 54 22 11 50 31 63 45 l23 24
467 -2 c257 -1 512 1 567 5 114 8 194 3 245 -15z m-3810 -125 c8 -5 11 -10 5
-10 -5 0 -17 5 -25 10 -8 5 -10 10 -5 10 6 0 17 -5 25 -10z m4043 -957 c3 -32
11 -59 17 -61 13 -5 13 -132 0 -132 -5 0 -10 -9 -10 -20 0 -11 4 -20 9 -20 4
0 11 -29 13 -65 3 -36 10 -71 15 -78 6 -6 16 -40 23 -75 7 -35 18 -69 25 -75
6 -7 20 -40 31 -74 10 -35 22 -63 27 -63 4 0 7 -4 7 -10 0 -17 34 -90 42 -90
5 0 8 -6 8 -13 0 -7 9 -28 19 -48 l19 -36 -35 -11 c-43 -13 -53 -9 -53 24 0
13 -4 24 -10 24 -5 0 -10 9 -10 20 0 11 -4 20 -9 20 -5 0 -15 16 -21 35 -6 19
-16 35 -21 35 -5 0 -9 10 -9 22 0 11 -11 44 -23 72 -33 70 -47 117 -47 153 0
17 -6 33 -13 36 -9 3 -17 30 -21 69 -3 34 -11 65 -16 66 -6 2 -10 10 -10 17 0
7 -12 20 -26 30 -14 9 -33 23 -42 31 -44 39 -96 74 -111 74 -9 0 -21 10 -26
23 -6 12 -20 23 -32 25 -13 2 -23 9 -23 15 0 7 -13 18 -30 25 -39 18 -43 62
-6 62 48 0 86 -13 91 -31 4 -11 11 -19 17 -19 6 0 18 -8 27 -18 9 -10 33 -26
53 -35 21 -10 41 -23 45 -30 4 -7 19 -20 33 -29 25 -15 26 -15 37 9 9 19 8 31
-3 58 -8 19 -14 59 -14 90 0 54 1 55 29 55 27 0 28 -2 34 -57z m-1313 -304
c32 -7 65 -23 86 -41 31 -27 34 -35 34 -85 0 -77 -12 -87 -106 -81 -103 7
-114 18 -114 118 0 103 7 109 100 89z m-3222 -182 c-39 -63 -55 -82 -59 -69
-8 22 20 78 47 92 11 6 29 25 38 41 10 17 20 28 23 26 2 -3 -20 -43 -49 -90z
m-141 -231 c-4 -11 1 -12 31 -3 20 6 119 12 220 14 154 3 185 1 198 -12 8 -8
26 -15 40 -15 13 0 24 -4 24 -9 0 -6 26 -18 58 -28 31 -9 59 -20 62 -23 3 -4
12 -9 20 -13 8 -4 24 -13 34 -19 28 -18 176 -168 176 -178 0 -5 3 -10 8 -12
11 -5 72 -86 72 -96 0 -4 10 -19 23 -32 26 -28 60 -81 83 -129 8 -19 22 -40
30 -48 8 -8 14 -21 14 -28 0 -8 8 -20 19 -27 10 -7 22 -29 26 -48 9 -41 32
-90 43 -90 4 0 13 -20 21 -44 7 -24 20 -52 29 -63 23 -25 48 -78 63 -132 7
-23 19 -45 26 -48 7 -3 13 -13 13 -23 0 -11 4 -21 9 -24 5 -3 12 -22 15 -41 4
-19 11 -35 16 -35 6 0 10 -9 10 -20 0 -11 4 -20 9 -20 5 0 11 -18 15 -40 3
-22 12 -40 19 -40 18 -1 -35 -29 -55 -30 -16 0 -20 7 -32 63 -4 15 -13 27 -21
27 -8 0 -15 8 -15 17 0 25 -31 103 -41 103 -5 0 -9 10 -9 23 0 12 -7 31 -15
41 -8 11 -15 30 -15 43 0 13 -7 26 -15 29 -8 4 -15 12 -15 19 0 19 -32 79 -47
88 -7 4 -13 19 -13 32 0 14 -3 25 -8 25 -7 0 -52 90 -52 104 0 3 -9 15 -20 26
-11 11 -20 29 -20 40 0 11 -7 20 -15 20 -9 0 -15 9 -15 25 0 14 -4 25 -9 25
-5 0 -11 10 -15 23 -3 12 -14 32 -26 44 -11 12 -20 27 -20 33 0 5 -4 10 -9 10
-5 0 -13 10 -17 22 -3 12 -12 28 -18 35 -6 7 -20 24 -31 39 -11 14 -39 46 -62
71 -23 24 -45 53 -48 62 -6 21 -60 71 -75 71 -5 0 -10 5 -10 10 0 6 -6 10 -14
10 -8 0 -16 3 -18 8 -4 10 -108 60 -140 68 -16 3 -28 10 -28 15 0 4 -16 11
-35 15 -19 3 -35 10 -35 15 0 5 -63 9 -140 9 -87 0 -140 -4 -140 -10 0 -5 -9
-10 -21 -10 -11 0 -39 -5 -62 -11 -61 -15 -73 -46 -68 -174 4 -108 4 -111 0
-260 -3 -99 24 -282 44 -296 4 -3 17 -59 29 -125 13 -77 33 -146 54 -196 19
-42 34 -79 34 -83 0 -28 137 -293 186 -360 45 -62 78 -116 72 -118 -2 -1 -14
-8 -27 -16 -27 -15 -28 -14 -101 90 -40 57 -162 294 -175 339 -4 14 -22 59
-40 101 -18 42 -39 111 -45 155 -19 120 -29 153 -50 164 -24 13 -40 68 -40
138 0 29 -7 69 -15 90 -26 61 -31 245 -10 331 13 53 15 81 8 109 -11 45 -6 72
13 72 8 0 14 4 14 10 0 10 20 37 51 70 8 9 18 24 22 33 3 9 9 17 13 17 3 0 4
-6 1 -14z m3594 -74 c44 -39 52 -107 16 -145 -29 -32 -89 -37 -142 -11 -36 17
-45 36 -45 106 0 74 4 78 76 78 56 0 68 -4 95 -28z m184 -371 c21 -12 31 -26
33 -47 3 -30 2 -31 -103 -67 l-105 -36 0 74 c0 60 3 76 18 84 28 17 123 12
157 -8z m2582 -3457 c32 -9 86 -20 121 -25 34 -5 90 -13 125 -18 116 -16 286
-99 337 -163 51 -66 82 -140 107 -259 39 -185 37 -243 -11 -354 -48 -109 -69
-135 -111 -135 -17 0 -35 -4 -41 -10 -24 -24 -132 -82 -178 -96 -28 -9 -59
-20 -68 -25 -10 -5 -27 -9 -37 -9 -11 0 -22 -4 -25 -9 -3 -5 -22 -12 -42 -16
-20 -3 -44 -10 -53 -15 -37 -21 -114 -51 -242 -94 -128 -43 -149 -47 -320 -61
-101 -8 -222 -21 -268 -30 -46 -8 -156 -17 -245 -20 -197 -7 -360 -28 -463
-60 -53 -17 -81 -21 -89 -14 -7 6 -128 11 -301 13 -322 4 -368 9 -386 40 -61
110 -125 373 -115 476 3 37 -5 33 278 129 53 18 130 48 237 90 28 11 86 36
128 56 42 19 88 38 103 41 15 4 65 23 112 42 65 27 101 36 156 38 74 3 154 33
154 59 0 9 18 16 48 20 26 4 83 13 128 21 44 8 142 14 216 14 103 0 145 4 174
16 22 9 52 16 69 16 16 0 38 7 48 16 17 15 18 27 12 113 -6 78 -4 102 9 127
18 36 87 72 137 72 19 0 39 4 45 9 22 22 178 25 251 5z m-1510 -490 c-33 -14
-64 -23 -70 -21 -12 4 90 46 113 46 8 0 -11 -11 -43 -25z m-257 -104 c-8 -5
-19 -10 -25 -10 -5 0 -3 5 5 10 8 5 20 10 25 10 6 0 3 -5 -5 -10z m-120 -50
c-8 -5 -22 -9 -30 -9 -10 0 -8 3 5 9 27 12 43 12 25 0z m-60 -20 c-8 -5 -19
-10 -25 -10 -5 0 -3 5 5 10 8 5 20 10 25 10 6 0 3 -5 -5 -10z m-50 -20 c-8 -5
-19 -10 -25 -10 -5 0 -3 5 5 10 8 5 20 10 25 10 6 0 3 -5 -5 -10z"/>
<path d="M4620 15451 c-15 -28 -12 -49 7 -60 20 -11 34 -125 22 -176 -6 -25
-7 -21 -8 23 -1 57 -18 75 -47 51 -13 -11 -15 -26 -11 -72 7 -76 14 -83 74
-71 l48 9 0 132 c0 125 -1 133 -24 157 -29 31 -47 33 -61 7z"/>
<path d="M7114 14852 c-11 -10 -23 -25 -27 -34 -3 -10 -12 -18 -19 -18 -7 0
-18 -8 -24 -18 -6 -10 -30 -26 -53 -37 -22 -11 -41 -23 -41 -27 0 -3 -38 -18
-85 -33 -68 -21 -85 -30 -85 -46 0 -15 -7 -19 -30 -19 -17 0 -76 -11 -132 -25
-56 -14 -121 -25 -144 -25 -24 0 -44 -4 -44 -10 0 -5 -10 -10 -23 -10 -12 0
-32 -7 -45 -15 -44 -32 -323 -94 -425 -96 -116 -2 -118 -9 -20 -59 49 -25 90
-48 93 -51 3 -3 39 -25 80 -48 41 -23 104 -60 140 -82 36 -23 94 -57 130 -77
56 -31 115 -71 220 -150 14 -11 76 -54 137 -96 140 -95 138 -93 247 -198 104
-100 98 -102 115 37 15 129 20 210 40 625 6 124 15 254 20 290 12 76 14 210 3
227 -5 8 -13 7 -28 -5z"/>
</g>
</svg>
