<svg xmlns="http://www.w3.org/2000/svg" xmlns:xlink="http://www.w3.org/1999/xlink" width="500" zoomAndPan="magnify" viewBox="0 0 375 374.999991" height="500" preserveAspectRatio="xMidYMid meet" version="1.0"><defs><clipPath id="id1"><path d="M 37.5 292 L 200 292 L 200 360.035156 L 37.5 360.035156 Z M 37.5 292 " clip-rule="nonzero"/></clipPath><clipPath id="id2"><path d="M 58 306 L 82 306 L 82 360.035156 L 58 360.035156 Z M 58 306 " clip-rule="nonzero"/></clipPath><clipPath id="id3"><path d="M 152 307 L 176 307 L 176 360.035156 L 152 360.035156 Z M 152 307 " clip-rule="nonzero"/></clipPath><clipPath id="id4"><path d="M 179 294 L 342.75 294 L 342.75 360.035156 L 179 360.035156 Z M 179 294 " clip-rule="nonzero"/></clipPath><clipPath id="id5"><path d="M 173 15.035156 L 263 15.035156 L 263 192 L 173 192 Z M 173 15.035156 " clip-rule="nonzero"/></clipPath></defs><rect x="-37.5" width="450" fill="rgb(100%, 100%, 100%)" y="-37.499999" height="449.999989" fill-opacity="1"/><rect x="-37.5" width="450" fill="rgb(100%, 100%, 100%)" y="-37.499999" height="449.999989" fill-opacity="1"/><rect x="-37.5" width="450" fill="rgb(100%, 100%, 100%)" y="-37.499999" height="449.999989" fill-opacity="1"/><rect x="-37.5" width="450" fill="rgb(100%, 100%, 100%)" y="-37.499999" height="449.999989" fill-opacity="1"/><path fill="rgb(80.778503%, 21.958923%, 11.759949%)" d="M 177.28125 254.375 C 177.28125 288.570312 151.425781 316.285156 118.394531 316.285156 C 85.378906 316.285156 60.011719 288.050781 60.011719 253.855469 C 60.011719 219.675781 85.378906 192.476562 118.394531 192.476562 C 151.425781 192.476562 177.28125 220.191406 177.28125 254.375 " fill-opacity="1" fill-rule="nonzero"/><path fill="rgb(69.018555%, 18.429565%, 9.799194%)" d="M 96.792969 182.96875 C 96.792969 194.820312 87.1875 204.433594 75.347656 204.433594 C 63.492188 204.433594 53.882812 194.820312 53.882812 182.96875 C 53.882812 171.105469 63.492188 161.492188 75.347656 161.492188 C 87.1875 161.492188 96.792969 171.105469 96.792969 182.96875 " fill-opacity="1" fill-rule="nonzero"/><path fill="rgb(80.778503%, 21.958923%, 11.759949%)" d="M 177.265625 257.71875 C 177.386719 252.152344 177.25 262.96875 177.265625 257.71875 C 177.3125 246.628906 177.25 235.527344 177.25 224.4375 C 177.25 192.019531 150.984375 165.734375 118.59375 165.734375 C 86.183594 165.734375 59.917969 192.019531 59.917969 224.4375 C 59.84375 227.964844 59.933594 231.511719 59.902344 235.039062 C 59.84375 248.058594 60.101562 240.835938 60.011719 253.855469 " fill-opacity="1" fill-rule="nonzero"/><g clip-path="url(#id1)"><path fill="rgb(98.429871%, 82.749939%, 64.309692%)" d="M 199.109375 360.003906 L 37.695312 360.003906 C 38.046875 356.671875 38.746094 334.234375 39.71875 331.574219 C 44.003906 319.796875 53.367188 314.214844 58.351562 311.980469 C 60.34375 311.082031 61.636719 310.746094 61.636719 310.746094 C 69.601562 309.894531 75.96875 308.496094 81.09375 306.882812 C 86.441406 305.179688 90.394531 303.203125 93.3125 301.253906 C 100.335938 296.632812 101.429688 292.175781 101.429688 292.175781 L 134.824219 293.648438 C 134.824219 293.648438 135.875 297.789062 142.289062 302.230469 C 144.84375 304.023438 148.234375 305.847656 152.761719 307.492188 C 158.25 309.484375 165.394531 311.1875 174.679688 312.191406 C 174.679688 312.191406 175.105469 312.285156 175.835938 312.496094 C 179.5 313.546875 190.960938 317.714844 196.402344 330.035156 C 197.742188 333.03125 198.699219 355.972656 199.109375 360.003906 " fill-opacity="1" fill-rule="nonzero"/></g><path fill="rgb(96.469116%, 57.249451%, 55.288696%)" d="M 142.289062 302.230469 L 142.289062 302.257812 C 142.289062 302.257812 138.292969 308.117188 136.773438 309.925781 C 112.847656 338.097656 126.328125 337.960938 100.398438 309.925781 L 93.3125 301.253906 C 100.320312 296.617188 102.417969 287.609375 102.417969 287.609375 L 134.871094 287.6875 C 134.871094 287.6875 135.875 297.789062 142.289062 302.230469 " fill-opacity="1" fill-rule="nonzero"/><path fill="rgb(97.24884%, 66.668701%, 64.709473%)" d="M 75.316406 231.554688 C 75.316406 237.730469 76.472656 243.617188 78.539062 249.003906 C 84.847656 292.355469 119.625 295.734375 119.625 295.734375 C 119.625 295.734375 154.144531 293.011719 160.453125 249.65625 C 162.6875 244.089844 163.933594 237.976562 163.933594 231.554688 " fill-opacity="1" fill-rule="nonzero"/><path fill="rgb(80.778503%, 21.958923%, 11.759949%)" d="M 75.378906 226.597656 C 75.363281 226.777344 75.347656 226.960938 75.347656 227.144531 C 75.347656 240.757812 95.257812 237.59375 119.824219 237.59375 C 144.386719 237.59375 164.300781 240.757812 164.300781 227.144531 C 164.300781 226.960938 164.285156 226.777344 164.269531 226.597656 " fill-opacity="1" fill-rule="nonzero"/><g clip-path="url(#id2)"><path fill="rgb(93.328857%, 61.959839%, 11.369324%)" d="M 81.425781 308.96875 L 81.425781 360.003906 L 58.351562 360.003906 L 58.351562 311.980469 C 60.34375 311.082031 61.636719 310.746094 61.636719 310.746094 C 69.601562 309.894531 75.96875 308.496094 81.09375 306.882812 C 81.304688 307.539062 81.425781 308.238281 81.425781 308.96875 " fill-opacity="1" fill-rule="nonzero"/></g><g clip-path="url(#id3)"><path fill="rgb(93.328857%, 61.959839%, 11.369324%)" d="M 175.835938 312.496094 L 175.835938 360.003906 L 152.761719 360.003906 L 152.761719 307.492188 C 158.25 309.484375 165.394531 311.1875 174.679688 312.191406 C 174.679688 312.191406 175.105469 312.285156 175.835938 312.496094 " fill-opacity="1" fill-rule="nonzero"/></g><g clip-path="url(#id4)"><path fill="rgb(14.118958%, 27.839661%, 36.859131%)" d="M 342.402344 360.019531 L 179.789062 360.019531 C 180.152344 356.429688 181.324219 334.523438 182.433594 331.753906 C 188.710938 315.996094 204.6875 312.800781 204.6875 312.800781 C 221.027344 311.019531 230.753906 307.082031 236.5 303.261719 C 236.894531 303.003906 237.277344 302.746094 237.625 302.488281 C 243.265625 298.410156 244.480469 294.683594 244.617188 294.199219 C 244.632812 294.167969 244.632812 294.152344 244.632812 294.152344 L 278.195312 295.628906 C 278.195312 295.628906 279.125 299.277344 284.566406 303.429688 C 284.914062 303.703125 285.292969 303.964844 285.691406 304.253906 C 291.359375 308.222656 301.222656 312.421875 318.234375 314.261719 C 318.234375 314.261719 333.722656 317.363281 340.183594 332.484375 C 341.445312 335.4375 342.007812 356.109375 342.402344 360.019531 " fill-opacity="1" fill-rule="nonzero"/></g><path fill="rgb(96.469116%, 57.249451%, 55.288696%)" d="M 284.566406 303.429688 L 280.140625 308.3125 C 261.171875 323.402344 243.613281 308.3125 243.613281 308.3125 L 237.625 302.488281 C 243.265625 298.410156 244.480469 294.683594 244.617188 294.199219 C 244.632812 294.167969 244.632812 294.152344 244.632812 294.152344 L 278.195312 295.628906 C 278.195312 295.628906 279.125 299.277344 284.566406 303.429688 " fill-opacity="1" fill-rule="nonzero"/><path fill="rgb(82.348633%, 48.239136%, 7.839966%)" d="M 229.371094 217.148438 C 231.378906 220.011719 260.183594 258.996094 302 245.597656 C 303.382812 245.15625 305.800781 244.167969 306.421875 242.765625 C 307.457031 240.515625 307.425781 230.429688 307.425781 233.257812 " fill-opacity="1" fill-rule="nonzero"/><path fill="rgb(82.348633%, 48.239136%, 7.839966%)" d="M 239.617188 229.378906 C 239.617188 229.378906 234.753906 247.511719 220.085938 240.621094 C 218.441406 239.847656 218.414062 239.40625 218.414062 233.535156 " fill-opacity="1" fill-rule="nonzero"/><path fill="rgb(82.348633%, 48.239136%, 7.839966%)" d="M 202.953125 297.710938 L 202.953125 226.09375 C 202.953125 193.542969 229.34375 167.132812 261.886719 167.132812 C 294.429688 167.132812 320.800781 193.542969 320.800781 226.09375 L 320.800781 297.710938 L 202.953125 297.710938 " fill-opacity="1" fill-rule="nonzero"/><g clip-path="url(#id5)"><path fill="rgb(98.429871%, 82.749939%, 64.309692%)" d="M 173.832031 35.875 C 173.832031 24.375 183.148438 15.054688 194.640625 15.054688 L 242.1875 15.054688 C 253.675781 15.054688 262.996094 24.375 262.996094 35.875 L 262.996094 135.585938 C 262.996094 147.085938 253.675781 156.410156 242.1875 156.410156 C 236.089844 156.410156 229.996094 156.472656 223.914062 156.347656 C 219.066406 156.257812 214.75 156.609375 210.234375 158.433594 C 202.910156 161.382812 196.160156 167.089844 192.039062 173.859375 C 190.929688 175.699219 189.972656 177.765625 189.378906 179.851562 C 188.347656 183.578125 187.816406 187.972656 187.980469 191.851562 C 187.980469 191.851562 176.351562 179.636719 173.96875 137.835938 C 173.875 137.105469 173.832031 136.347656 173.832031 135.585938 L 173.832031 35.875 " fill-opacity="1" fill-rule="nonzero"/></g><path fill="rgb(93.328857%, 61.959839%, 11.369324%)" d="M 209.628906 91.183594 C 209.628906 96.035156 213.5625 99.976562 218.414062 99.976562 C 223.261719 99.976562 227.199219 96.035156 227.199219 91.183594 L 229.722656 48.878906 C 229.722656 44.027344 225.785156 40.085938 220.921875 40.085938 L 215.90625 40.085938 C 211.054688 40.085938 207.117188 44.027344 207.117188 48.878906 L 209.628906 91.183594 " fill-opacity="1" fill-rule="nonzero"/><path fill="rgb(93.328857%, 61.959839%, 11.369324%)" d="M 209.15625 125.878906 C 209.15625 131.007812 213.289062 135.144531 218.414062 135.144531 C 223.535156 135.144531 227.667969 131.007812 227.667969 125.878906 C 227.667969 120.769531 223.535156 116.617188 218.414062 116.617188 C 213.289062 116.617188 209.15625 120.769531 209.15625 125.878906 " fill-opacity="1" fill-rule="nonzero"/></svg>