<svg xmlns="http://www.w3.org/2000/svg" xmlns:xlink="http://www.w3.org/1999/xlink" width="500" zoomAndPan="magnify" viewBox="0 0 375 374.999991" height="500" preserveAspectRatio="xMidYMid meet" version="1.0"><defs><clipPath id="id1"><path d="M 21.476562 301 L 198 301 L 198 375 L 21.476562 375 Z M 21.476562 301 " clip-rule="nonzero"/></clipPath><clipPath id="id2"><path d="M 176 303 L 353.726562 303 L 353.726562 375 L 176 375 Z M 176 303 " clip-rule="nonzero"/></clipPath></defs><rect x="-37.5" width="450" fill="rgb(100%, 100%, 100%)" y="-37.499999" height="449.999989" fill-opacity="1"/><rect x="-37.5" width="450" fill="rgb(32.159424%, 44.309998%, 100%)" y="-37.499999" height="449.999989" fill-opacity="1"/><rect x="-37.5" width="450" fill="rgb(100%, 100%, 100%)" y="-37.499999" height="449.999989" fill-opacity="1"/><rect x="-37.5" width="450" fill="rgb(32.159424%, 44.309998%, 100%)" y="-37.499999" height="449.999989" fill-opacity="1"/><path fill="rgb(80.778503%, 21.958923%, 11.759949%)" d="M 173.621094 260.152344 C 173.621094 297.320312 145.480469 327.445312 109.527344 327.445312 C 73.589844 327.445312 45.976562 296.757812 45.976562 259.589844 C 45.976562 222.4375 73.589844 192.875 109.527344 192.875 C 145.480469 192.875 173.621094 223 173.621094 260.152344 " fill-opacity="1" fill-rule="nonzero"/><path fill="rgb(69.018555%, 18.429565%, 9.799194%)" d="M 86.015625 182.539062 C 86.015625 195.421875 75.558594 205.871094 62.671875 205.871094 C 49.765625 205.871094 39.308594 195.421875 39.308594 182.539062 C 39.308594 169.644531 49.765625 159.191406 62.671875 159.191406 C 75.558594 159.191406 86.015625 169.644531 86.015625 182.539062 " fill-opacity="1" fill-rule="nonzero"/><path fill="rgb(80.778503%, 21.958923%, 11.759949%)" d="M 173.605469 263.789062 C 173.738281 257.738281 173.589844 269.492188 173.605469 263.789062 C 173.65625 251.734375 173.589844 239.664062 173.589844 227.613281 C 173.589844 192.378906 145 163.804688 109.742188 163.804688 C 74.46875 163.804688 45.878906 192.378906 45.878906 227.613281 C 45.796875 231.449219 45.894531 235.300781 45.863281 239.136719 C 45.796875 253.289062 46.078125 245.4375 45.976562 259.589844 " fill-opacity="1" fill-rule="nonzero"/><g clip-path="url(#id1)"><path fill="rgb(98.429871%, 82.749939%, 64.309692%)" d="M 197.378906 374.96875 L 21.691406 374.96875 C 22.070312 371.347656 22.832031 346.957031 23.890625 344.0625 C 28.554688 331.265625 38.746094 325.199219 44.175781 322.769531 C 46.34375 321.792969 47.75 321.429688 47.75 321.429688 C 56.417969 320.503906 63.351562 318.980469 68.925781 317.230469 C 74.75 315.378906 79.050781 313.226562 82.226562 311.109375 C 89.871094 306.085938 91.0625 301.238281 91.0625 301.238281 L 127.410156 302.84375 C 127.410156 302.84375 128.554688 307.339844 135.535156 312.167969 C 138.316406 314.121094 142.003906 316.105469 146.933594 317.890625 C 152.90625 320.054688 160.683594 321.90625 170.792969 323 C 170.792969 323 171.257812 323.097656 172.050781 323.328125 C 176.039062 324.472656 188.511719 329 194.433594 342.394531 C 195.890625 345.652344 196.933594 370.585938 197.378906 374.96875 " fill-opacity="1" fill-rule="nonzero"/></g><path fill="rgb(96.469116%, 57.249451%, 55.288696%)" d="M 135.535156 312.167969 L 135.535156 312.203125 C 135.535156 312.203125 131.183594 318.566406 129.53125 320.535156 C 103.488281 351.15625 118.164062 351.007812 89.9375 320.535156 L 82.226562 311.109375 C 89.855469 306.066406 92.136719 296.28125 92.136719 296.28125 L 127.460938 296.363281 C 127.460938 296.363281 128.554688 307.339844 135.535156 312.167969 " fill-opacity="1" fill-rule="nonzero"/><path fill="rgb(97.24884%, 66.668701%, 64.709473%)" d="M 62.636719 235.351562 C 62.636719 242.0625 63.894531 248.460938 66.144531 254.316406 C 73.011719 301.4375 110.867188 305.109375 110.867188 305.109375 C 110.867188 305.109375 148.441406 302.148438 155.304688 255.027344 C 157.738281 248.976562 159.09375 242.328125 159.09375 235.351562 " fill-opacity="1" fill-rule="nonzero"/><path fill="rgb(80.778503%, 21.958923%, 11.759949%)" d="M 62.703125 229.960938 C 62.6875 230.160156 62.671875 230.355469 62.671875 230.554688 C 62.671875 245.355469 84.34375 241.914062 111.082031 241.914062 C 137.820312 241.914062 159.492188 245.355469 159.492188 230.554688 C 159.492188 230.355469 159.476562 230.160156 159.460938 229.960938 " fill-opacity="1" fill-rule="nonzero"/><path fill="rgb(93.328857%, 61.959839%, 11.369324%)" d="M 69.289062 319.492188 L 69.289062 374.96875 L 44.175781 374.96875 L 44.175781 322.769531 C 46.34375 321.792969 47.75 321.429688 47.75 321.429688 C 56.417969 320.503906 63.351562 318.980469 68.925781 317.230469 C 69.15625 317.941406 69.289062 318.699219 69.289062 319.492188 " fill-opacity="1" fill-rule="nonzero"/><path fill="rgb(93.328857%, 61.959839%, 11.369324%)" d="M 172.050781 323.328125 L 172.050781 374.96875 L 146.933594 374.96875 L 146.933594 317.890625 C 152.90625 320.054688 160.683594 321.90625 170.792969 323 C 170.792969 323 171.257812 323.097656 172.050781 323.328125 " fill-opacity="1" fill-rule="nonzero"/><g clip-path="url(#id2)"><path fill="rgb(14.118958%, 27.839661%, 36.859131%)" d="M 353.347656 374.984375 L 176.351562 374.984375 C 176.75 371.082031 178.023438 347.273438 179.230469 344.261719 C 186.0625 327.132812 203.453125 323.660156 203.453125 323.660156 C 221.238281 321.726562 231.828125 317.445312 238.082031 313.292969 C 238.511719 313.011719 238.925781 312.730469 239.304688 312.449219 C 245.441406 308.019531 246.765625 303.96875 246.914062 303.4375 C 246.933594 303.40625 246.933594 303.390625 246.933594 303.390625 L 283.464844 304.992188 C 283.464844 304.992188 284.472656 308.960938 290.394531 313.476562 C 290.777344 313.773438 291.191406 314.054688 291.621094 314.367188 C 297.792969 318.683594 308.527344 323.246094 327.042969 325.246094 C 327.042969 325.246094 343.902344 328.621094 350.933594 345.054688 C 352.304688 348.265625 352.917969 370.734375 353.347656 374.984375 " fill-opacity="1" fill-rule="nonzero"/></g><path fill="rgb(96.469116%, 57.249451%, 55.288696%)" d="M 290.394531 313.476562 L 285.582031 318.78125 C 264.933594 335.183594 245.824219 318.78125 245.824219 318.78125 L 239.304688 312.449219 C 245.441406 308.019531 246.765625 303.96875 246.914062 303.4375 C 246.933594 303.40625 246.933594 303.390625 246.933594 303.390625 L 283.464844 304.992188 C 283.464844 304.992188 284.472656 308.960938 290.394531 313.476562 " fill-opacity="1" fill-rule="nonzero"/><path fill="rgb(82.348633%, 48.239136%, 7.839966%)" d="M 230.320312 219.691406 C 232.503906 222.800781 263.859375 265.179688 309.371094 250.613281 C 310.878906 250.132812 313.507812 249.058594 314.1875 247.535156 C 315.3125 245.089844 315.277344 234.128906 315.277344 237.203125 " fill-opacity="1" fill-rule="nonzero"/><path fill="rgb(82.348633%, 48.239136%, 7.839966%)" d="M 241.472656 232.984375 C 241.472656 232.984375 236.179688 252.695312 220.210938 245.203125 C 218.425781 244.363281 218.390625 243.882812 218.390625 237.5 " fill-opacity="1" fill-rule="nonzero"/><path fill="rgb(82.348633%, 48.239136%, 7.839966%)" d="M 201.566406 307.257812 L 201.566406 229.414062 C 201.566406 194.03125 230.289062 165.328125 265.710938 165.328125 C 301.132812 165.328125 329.839844 194.03125 329.839844 229.414062 L 329.839844 307.257812 L 201.566406 307.257812 " fill-opacity="1" fill-rule="nonzero"/><path fill="rgb(98.429871%, 82.749939%, 64.309692%)" d="M 169.867188 22.652344 C 169.867188 10.152344 180.007812 0.0234375 192.515625 0.0234375 L 244.269531 0.0234375 C 256.777344 0.0234375 266.917969 10.152344 266.917969 22.652344 L 266.917969 131.035156 C 266.917969 143.535156 256.777344 153.671875 244.269531 153.671875 C 237.632812 153.671875 231 153.738281 224.382812 153.605469 C 219.105469 153.503906 214.40625 153.886719 209.492188 155.871094 C 201.515625 159.078125 194.171875 165.277344 189.6875 172.636719 C 188.480469 174.636719 187.4375 176.886719 186.792969 179.148438 C 185.667969 183.199219 185.085938 187.980469 185.269531 192.195312 C 185.269531 192.195312 172.613281 178.917969 170.015625 133.480469 C 169.914062 132.6875 169.867188 131.863281 169.867188 131.035156 L 169.867188 22.652344 " fill-opacity="1" fill-rule="nonzero"/><path fill="rgb(93.328857%, 61.959839%, 11.369324%)" d="M 208.828125 82.769531 C 208.828125 88.046875 213.113281 92.328125 218.390625 92.328125 C 223.671875 92.328125 227.957031 88.046875 227.957031 82.769531 L 230.703125 36.789062 C 230.703125 31.515625 226.417969 27.230469 221.121094 27.230469 L 215.664062 27.230469 C 210.382812 27.230469 206.097656 31.515625 206.097656 36.789062 L 208.828125 82.769531 " fill-opacity="1" fill-rule="nonzero"/><path fill="rgb(93.328857%, 61.959839%, 11.369324%)" d="M 208.316406 120.484375 C 208.316406 126.058594 212.816406 130.554688 218.390625 130.554688 C 223.96875 130.554688 228.46875 126.058594 228.46875 120.484375 C 228.46875 114.929688 223.96875 110.417969 218.390625 110.417969 C 212.816406 110.417969 208.316406 114.929688 208.316406 120.484375 " fill-opacity="1" fill-rule="nonzero"/></svg>